<?xml version="1.0"?>
<svg xmlns="http://www.w3.org/2000/svg" viewBox="0 0 64 64" width="512" height="512"><g id="wheelchair-chair-wheelchairs-chairs-service"><path d="M61,54H52.97A5.013,5.013,0,0,0,50,52.1V41h3a1,1,0,0,0,1-1V36a1,1,0,0,0-1-1H50V24h1a1,1,0,0,0,1-1V20a4,4,0,0,0-4-4H24a1,1,0,0,0-1,1v2H21V3a1,1,0,0,0-1-1H16a1,1,0,0,0-1,1V4H12V3a1,1,0,0,0-1-1H3A1,1,0,0,0,2,3V7A1,1,0,0,0,3,8h8a1,1,0,0,0,1-1V6h3V30.29A16,16,0,1,0,33.95,47H48v5.1A5,5,0,0,0,49,62a4.952,4.952,0,0,0,3.97-2H61a1,1,0,0,0,1-1V55A1,1,0,0,0,61,54ZM10,6H4V4h6ZM25,18H48a2.006,2.006,0,0,1,2,2v2H25Zm-4,3h2v2a1,1,0,0,0,1,1H48V35H29.59A15.99,15.99,0,0,0,21,30.29Zm6.15,14.43-7.13,7.14A4.166,4.166,0,0,0,19,42.14V32.05A13.933,13.933,0,0,1,27.15,35.43ZM17,4h2V30.05c-.33-.02-.66-.05-1-.05s-.67.03-1,.05Zm0,28.05V42.14a4.166,4.166,0,0,0-1.02.43L8.85,35.43A13.933,13.933,0,0,1,17,32.05Zm-9.57,4.8,7.14,7.13A4.166,4.166,0,0,0,14.14,45H4.05A13.933,13.933,0,0,1,7.43,36.85ZM4.05,47H14.14a4.166,4.166,0,0,0,.43,1.02L7.43,55.15A13.933,13.933,0,0,1,4.05,47ZM17,59.95a13.933,13.933,0,0,1-8.15-3.38l7.13-7.14a4.166,4.166,0,0,0,1.02.43ZM16,46a2,2,0,1,1,2,2A2.006,2.006,0,0,1,16,46Zm3,13.95V49.86a4.166,4.166,0,0,0,1.02-.43l7.13,7.14A13.933,13.933,0,0,1,19,59.95Zm9.57-4.8-7.14-7.13A4.166,4.166,0,0,0,21.86,47H31.95A13.933,13.933,0,0,1,28.57,55.15ZM21.86,45a4.166,4.166,0,0,0-.43-1.02l7.14-7.13A13.933,13.933,0,0,1,31.95,45Zm9.36-8H52v2H32.37A16.458,16.458,0,0,0,31.22,37Zm2.73,8a16.006,16.006,0,0,0-.76-4H48v4ZM49,60a3,3,0,1,1,3-3A3.009,3.009,0,0,1,49,60Zm11-2H53.9a5.05,5.05,0,0,0,0-2H60Z"/></g></svg>
