<svg id="Capa_1" enable-background="new 0 0 512 512" height="512" viewBox="0 0 512 512" width="512" xmlns="http://www.w3.org/2000/svg"><g><path d="m482 75.753v-38.253c0-20.678-16.822-37.5-37.5-37.5h-377c-20.678 0-37.5 16.822-37.5 37.5v38.253c-17.096 3.485-30 18.638-30 36.747v392c0 4.142 3.357 7.5 7.5 7.5h497c4.143 0 7.5-3.358 7.5-7.5v-392c0-18.109-12.904-33.262-30-36.747zm-150 421.247h-15v-234.5c0-4.142-3.357-7.5-7.5-7.5h-107c-4.143 0-7.5 3.358-7.5 7.5v234.5h-15v-234.5c0-12.407 10.094-22.5 22.5-22.5h107c12.406 0 22.5 10.093 22.5 22.5zm-30-60h-92v-167h92zm-92 15h92v15h-92zm0 30h92v15h-92zm287 15h-150v-234.5c0-20.678-16.822-37.5-37.5-37.5h-107c-20.678 0-37.5 16.822-37.5 37.5v234.5h-150v-384.5c0-12.407 10.094-22.5 22.5-22.5 4.143 0 7.5-3.358 7.5-7.5v-45c0-12.407 10.094-22.5 22.5-22.5h377c12.406 0 22.5 10.093 22.5 22.5v37.5h-399.5c-4.143 0-7.5 3.358-7.5 7.5s3.357 7.5 7.5 7.5h407c12.406 0 22.5 10.093 22.5 22.5z"/><path d="m75 157.5c0-12.407-10.094-22.5-22.5-22.5s-22.5 10.093-22.5 22.5 10.094 22.5 22.5 22.5 22.5-10.093 22.5-22.5zm-22.5 7.5c-4.136 0-7.5-3.364-7.5-7.5s3.364-7.5 7.5-7.5 7.5 3.364 7.5 7.5-3.364 7.5-7.5 7.5z"/><path d="m154.25 135c-12.406 0-22.5 10.093-22.5 22.5s10.094 22.5 22.5 22.5 22.5-10.093 22.5-22.5-10.094-22.5-22.5-22.5zm0 30c-4.136 0-7.5-3.364-7.5-7.5s3.364-7.5 7.5-7.5 7.5 3.364 7.5 7.5-3.364 7.5-7.5 7.5z"/><path d="m256 135c-12.406 0-22.5 10.093-22.5 22.5s10.094 22.5 22.5 22.5 22.5-10.093 22.5-22.5-10.094-22.5-22.5-22.5zm0 30c-4.136 0-7.5-3.364-7.5-7.5s3.364-7.5 7.5-7.5 7.5 3.364 7.5 7.5-3.364 7.5-7.5 7.5z"/><path d="m380.25 157.5c0-12.407-10.094-22.5-22.5-22.5s-22.5 10.093-22.5 22.5 10.094 22.5 22.5 22.5 22.5-10.093 22.5-22.5zm-22.5 7.5c-4.136 0-7.5-3.364-7.5-7.5s3.364-7.5 7.5-7.5 7.5 3.364 7.5 7.5-3.364 7.5-7.5 7.5z"/><path d="m459.5 135c-12.406 0-22.5 10.093-22.5 22.5s10.094 22.5 22.5 22.5 22.5-10.093 22.5-22.5-10.094-22.5-22.5-22.5zm0 30c-4.136 0-7.5-3.364-7.5-7.5s3.364-7.5 7.5-7.5 7.5 3.364 7.5 7.5-3.364 7.5-7.5 7.5z"/><path d="m444.5 255h-75c-4.143 0-7.5 3.358-7.5 7.5v75c0 4.142 3.357 7.5 7.5 7.5h75c4.143 0 7.5-3.358 7.5-7.5v-75c0-4.142-3.357-7.5-7.5-7.5zm-7.5 75h-60v-60h60z"/><path d="m142.5 255h-75c-4.143 0-7.5 3.358-7.5 7.5v75c0 4.142 3.357 7.5 7.5 7.5h75c4.143 0 7.5-3.358 7.5-7.5v-75c0-4.142-3.357-7.5-7.5-7.5zm-7.5 75h-60v-60h60z"/></g></svg>