<?xml version="1.0" encoding="iso-8859-1"?>
<!-- Generator: Adobe Illustrator 19.0.0, SVG Export Plug-In . SVG Version: 6.00 Build 0)  -->
<svg version="1.1" id="Capa_1" xmlns="http://www.w3.org/2000/svg" xmlns:xlink="http://www.w3.org/1999/xlink" x="0px" y="0px"
	 viewBox="0 0 512.002 512.002" style="enable-background:new 0 0 512.002 512.002;" xml:space="preserve">
<g>
	<g>
		<path d="M162.813,346.536c-21.264,0-38.563,17.299-38.563,38.563s17.299,38.563,38.563,38.563
			c21.264,0,38.563-17.299,38.563-38.563S184.076,346.536,162.813,346.536z M162.813,408.661c-12.992,0-23.563-10.57-23.563-23.563
			s10.57-23.563,23.563-23.563c12.993,0,23.563,10.57,23.563,23.563S175.805,408.661,162.813,408.661z"/>
	</g>
</g>
<g>
	<g>
		<path d="M461.111,384.344c-14.825,0-26.887,12.062-26.887,26.887c0,14.825,12.062,26.886,26.887,26.886
			c14.825,0,26.886-12.061,26.886-26.886C487.997,396.406,475.937,384.344,461.111,384.344z M461.111,423.117
			c-6.554,0-11.887-5.332-11.887-11.886c0-6.554,5.333-11.887,11.887-11.887c6.554,0,11.886,5.333,11.886,11.887
			C472.997,417.785,467.666,423.117,461.111,423.117z"/>
	</g>
</g>
<g>
	<g>
		<path d="M461.111,360.342c-1.702,0-3.384,0.088-5.043,0.252c-10.042-10.24-26.084-17.465-48.925-21.882v-24.454
			c2.448-1.003,4.693-2.498,6.606-4.446c3.747-3.816,5.756-8.865,5.658-14.216c-0.195-10.698-9.244-19.401-20.171-19.401h-5.894
			l-1.84-2.289c-11.365-14.138-28.286-22.247-46.425-22.247h-14.039c-15.341,0-28.191,10.841-31.309,25.263
			c-14.422,3.117-25.263,15.968-25.263,31.308v14.647c-6.697-2.861-13.045-6.531-18.985-10.99
			c-5.989-4.494-11.428-9.725-16.165-15.546c-5.917-7.272-13.57-12.586-22.074-15.528l-54.937-164.339
			c-3.427-10.25-8.5-19.805-15.079-28.397c-2.519-3.29-7.226-3.914-10.515-1.396s-3.914,7.226-1.396,10.515
			c5.569,7.273,9.863,15.359,12.763,24.034l52.464,156.94h-20.575l-50.396-150.753c-7.8-23.333-28.267-39.723-52.244-42.578V65.22
			c13.56,1.225,26.563,5.764,37.987,13.309c3.457,2.283,8.109,1.332,10.392-2.124c2.283-3.457,1.332-8.109-2.124-10.392
			C107.613,55.462,89.03,49.884,69.83,49.881H24.757C11.106,49.881,0,60.987,0,74.639s11.106,24.757,24.757,24.757H69.83
			c20.672,0,38.964,13.172,45.518,32.777l48.806,145.997c0,0-20.616,0-20.637,0c-12.834,0-22.482,12.493-19.237,24.911
			c0.02,0.075,0.04,0.149,0.062,0.223l3.839,13.034c-25.117,12.702-42.388,38.745-42.388,68.762
			c0,42.47,34.551,77.021,77.021,77.021c28.424,0,53.283-15.489,66.629-38.458h182.323c5.562,22.07,25.574,38.458,49.347,38.458
			c28.06,0,50.889-22.829,50.889-50.889C512,383.17,489.171,360.342,461.111,360.342z M62.33,84.396H24.757
			c-5.38,0-9.757-4.377-9.757-9.757s4.377-9.757,9.757-9.757H62.33V84.396z M331.039,266.657h14.039
			c10.154,0,19.797,3.396,27.571,9.536h-56.904C318.523,270.55,324.335,266.657,331.039,266.657z M306.503,291.194h92.733
			c2.758,0,5.127,2.141,5.174,4.675c0.048,2.63-2.139,4.86-4.767,4.86H291.209C293.988,295.085,299.799,291.194,306.503,291.194z
			 M289.468,315.729h102.676v20.57c-13.798-1.751-29.591-2.697-47.857-2.875c-8.021-0.078-16.055-0.122-24.051-0.831
			c-10.325-0.906-20.671-2.446-30.768-4.809V315.729z M162.813,447.119c-34.199,0-62.021-27.822-62.021-62.021
			c0-33.502,28.578-62.021,62.021-62.021c33.794,0,62.021,28.29,62.021,62.025C224.834,418.889,196.537,447.119,162.813,447.119z
			 M422.923,377.599h-42.815c-4.142,0-7.5,3.358-7.5,7.5c0,4.142,3.358,7.5,7.5,7.5h33.625c-1.363,3.456-2.327,7.058-2.899,10.754
			c-0.147,0.937-0.508,4.475-0.549,5.309H236.158c0.059-0.182,0.328-1.126,0.415-1.413c1.315-4.364,2.233-8.829,2.747-13.38
			c0.038-0.33,0.147-1.175,0.156-1.27h110.711c4.142,0,7.5-3.358,7.5-7.5c0-4.142-3.358-7.5-7.5-7.5H239.471
			c-0.006-0.062-0.016-0.123-0.022-0.185c-1.676-16.375-8.64-32.005-19.739-44.171c-14.451-15.839-35.443-25.165-56.897-25.165
			c-6.946,0-13.911,0.941-20.603,2.803c0,0-3.441-11.683-3.442-11.685c-0.741-3.05,1.629-6.027,4.748-6.027c0,0,58.015,0,58.022,0
			c10.118,0,19.785,4.82,26.145,12.638c5.507,6.769,11.831,12.851,18.795,18.076c22.904,17.195,51.309,22.561,79.336,24.16
			c24.267,1.384,48.544,0.411,72.629,4.316c0.077,0.012,0.154,0.009,0.231,0.019c17.585,2.85,30.849,7.236,39.93,13.204
			C432.677,368.502,427.349,372.57,422.923,377.599z M461.111,447.119c-19.36,0-35.889-16.521-35.889-35.889
			c0-19.373,16.487-35.889,35.889-35.889c19.789,0,35.889,16.1,35.889,35.889C497,431.02,480.9,447.119,461.111,447.119z"/>
	</g>
</g>
<g>
</g>
<g>
</g>
<g>
</g>
<g>
</g>
<g>
</g>
<g>
</g>
<g>
</g>
<g>
</g>
<g>
</g>
<g>
</g>
<g>
</g>
<g>
</g>
<g>
</g>
<g>
</g>
<g>
</g>
</svg>
