<svg id="Capa_1" enable-background="new 0 0 512 512" height="512" viewBox="0 0 512 512" width="512" xmlns="http://www.w3.org/2000/svg"><g><circle cx="71.206" cy="289.463" r="7.5"/><circle cx="71.206" cy="331.938" r="7.5"/><path d="m469.603 0h-427.206c-10.202 0-18.502 8.3-18.502 18.501v93.499c0 4.142 3.358 7.5 7.5 7.5s7.5-3.358 7.5-7.5v-93.499c0-1.931 1.571-3.501 3.502-3.501h427.206c1.931 0 3.502 1.571 3.502 3.501v474.997c0 1.931-1.571 3.501-3.502 3.501h-61.813v-361.891c0-10.09-8.209-18.299-18.299-18.299h-44.263c-4.143 0-7.5 3.358-7.5 7.5s3.357 7.5 7.5 7.5h44.263c1.819 0 3.299 1.48 3.299 3.299v361.892h-129.29v-365.191h51.728c4.143 0 7.5-3.358 7.5-7.5s-3.357-7.5-7.5-7.5h-192.718c-10.09 0-18.299 8.209-18.299 18.299v116.318h-65.316v-109.426c0-4.142-3.358-7.5-7.5-7.5s-7.5 3.358-7.5 7.5v351.499c0 10.202 8.3 18.501 18.502 18.501h427.206c10.202 0 18.502-8.3 18.502-18.501v-474.998c0-10.201-8.3-18.501-18.502-18.501zm-365.392 266.426v98.215h-65.316v-98.215zm-65.316 227.073v-113.858h65.315v117.359h-61.813c-1.931 0-3.502-1.571-3.502-3.501zm80.316-358.391c0-1.819 1.48-3.299 3.299-3.299h125.99v365.191h-129.29v-361.892z"/><path d="m196.772 95.791h50.436c2.68 0 5.155-1.429 6.495-3.75.67-1.16 1.005-2.455 1.005-3.75s-.335-2.59-1.005-3.75l-25.218-43.679c-1.34-2.321-3.816-3.75-6.495-3.75-2.68 0-5.155 1.429-6.495 3.75l-25.218 43.679c-.67 1.16-1.005 2.455-1.005 3.75s.335 2.59 1.005 3.75c1.34 2.321 3.816 3.75 6.495 3.75zm25.218-36.179 12.228 21.179h-24.456z"/><path d="m290.01 95.791c2.68 0 5.155-1.429 6.495-3.75l25.218-43.679c.67-1.16 1.005-2.455 1.005-3.75s-.335-2.59-1.005-3.75c-1.34-2.321-3.815-3.75-6.495-3.75h-50.436c-2.68 0-5.155 1.429-6.495 3.75-.67 1.16-1.005 2.455-1.005 3.75s.335 2.59 1.005 3.75l25.219 43.679c1.339 2.321 3.814 3.75 6.494 3.75zm12.228-43.679-12.228 21.179-12.229-21.179z"/><path d="m286.624 289.463v32.71c0 4.142 3.357 7.5 7.5 7.5s7.5-3.358 7.5-7.5v-32.71c0-4.142-3.357-7.5-7.5-7.5-4.142 0-7.5 3.358-7.5 7.5z"/><path d="m217.876 281.963c-4.142 0-7.5 3.358-7.5 7.5v32.71c0 4.142 3.358 7.5 7.5 7.5s7.5-3.358 7.5-7.5v-32.71c0-4.142-3.358-7.5-7.5-7.5z"/></g></svg>